snake_rectilinear_motion_ik.mot		
version=1		
nRows=232		
nColumns=3		
inDegrees=yes		
		
Units are S.I. units (second, meters, Newtons, ...)		
Angles are in degrees.		
		
endheader		
time	rib0_tx	rib1_tx
0.000	0.000	0.000
0.010	0.000	0.000
0.020	0.000	0.000
0.030	0.000	0.000
0.040	0.000	0.001
0.060	0.000	0.001
0.070	0.000	0.001
0.080	0.000	0.001
0.090	0.000	0.002
0.100	0.000	0.002
0.110	0.000	0.002
0.120	0.000	0.002
0.130	0.000	0.003
0.140	0.000	0.003
0.150	0.000	0.003
0.160	0.000	0.003
0.170	0.000	0.004
0.180	0.000	0.004
0.190	0.000	0.004
0.200	0.000	0.004
0.210	0.000	0.005
0.220	0.000	0.005
0.230	0.000	0.005
0.240	0.000	0.005
0.250	0.001	0.006
0.260	0.001	0.006
0.270	0.001	0.006
0.280	0.001	0.006
0.290	0.002	0.005
0.300	0.002	0.005
0.310	0.002	0.005
0.320	0.002	0.005
0.330	0.003	0.004
0.340	0.003	0.004
0.350	0.003	0.004
0.360	0.003	0.004
0.370	0.004	0.003
0.380	0.004	0.003
0.390	0.004	0.003
0.400	0.004	0.003
0.410	0.005	0.002
0.420	0.005	0.002
0.430	0.005	0.002
0.440	0.005	0.002
0.450	0.006	0.001
0.460	0.006	0.001
0.470	0.006	0.001
0.480	0.006	0.001
0.490	0.006	0.000
0.500	0.006	0.000
0.510	0.006	0.000
0.520	0.006	0.000
0.530	0.006	0.001
0.540	0.006	0.001
0.550	0.006	0.001
0.560	0.006	0.001
0.570	0.006	0.002
0.580	0.006	0.002
0.590	0.006	0.002
0.600	0.006	0.002
0.610	0.006	0.003
0.620	0.006	0.003
0.630	0.006	0.003
0.640	0.006	0.003
0.650	0.006	0.004
0.660	0.006	0.004
0.670	0.006	0.004
0.680	0.006	0.004
0.690	0.006	0.005
0.700	0.006	0.005
0.710	0.006	0.005
0.720	0.006	0.005
0.730	0.007	0.006
0.740	0.007	0.006
0.750	0.007	0.006
0.760	0.007	0.006
0.770	0.008	0.005
0.780	0.008	0.005
0.790	0.008	0.005
0.800	0.008	0.005
0.810	0.009	0.004
0.820	0.009	0.004
0.830	0.009	0.004
0.840	0.009	0.004
0.850	0.010	0.003
0.860	0.010	0.003
0.870	0.010	0.003
0.880	0.010	0.003
0.890	0.011	0.002
0.900	0.011	0.002
0.910	0.011	0.002
0.920	0.011	0.002
0.930	0.012	0.001
0.940	0.012	0.001
0.950	0.012	0.001
0.960	0.012	0.001
0.970	0.012	0.001
0.980	0.012	0.001
0.990	0.012	0.001
1.000	0.012	0.001
1.010	0.012	0.002
1.020	0.012	0.002
1.030	0.012	0.002
1.040	0.012	0.002
1.050	0.012	0.003
1.060	0.012	0.003
1.070	0.012	0.003
1.080	0.012	0.003
1.090	0.012	0.004
1.100	0.012	0.004
1.110	0.012	0.004
1.120	0.012	0.004
1.130	0.012	0.005
1.140	0.012	0.005
1.150	0.012	0.005
1.160	0.012	0.005
1.170	0.013	0.006
1.180	0.013	0.006
1.190	0.013	0.006
1.200	0.013	0.006
1.210	0.014	0.005
1.220	0.014	0.005
1.230	0.014	0.005
1.240	0.014	0.005
1.250	0.015	0.004
1.260	0.015	0.004
1.270	0.015	0.004
1.280	0.015	0.004
1.290	0.016	0.003
1.300	0.016	0.003
1.310	0.016	0.003
1.320	0.016	0.003
1.330	0.017	0.002
1.340	0.017	0.002
1.350	0.017	0.002
1.360	0.017	0.002
1.370	0.018	0.001
1.380	0.018	0.001
1.390	0.018	0.001
1.400	0.018	0.001
1.410	0.018	0.001
1.420	0.018	0.001
1.430	0.018	0.001
1.440	0.018	0.001
1.450	0.018	0.002
1.460	0.018	0.002
1.470	0.018	0.002
1.480	0.018	0.002
1.490	0.018	0.003
1.500	0.018	0.003
1.510	0.018	0.003
1.520	0.018	0.003
1.530	0.018	0.004
1.540	0.018	0.004
1.550	0.018	0.004
1.560	0.018	0.004
1.570	0.018	0.005
1.580	0.018	0.005
1.590	0.018	0.005
1.600	0.018	0.005
1.610	0.019	0.006
1.620	0.019	0.006
1.630	0.019	0.006
1.640	0.019	0.006
1.650	0.020	0.005
1.660	0.020	0.005
1.670	0.020	0.005
1.680	0.020	0.005
1.690	0.021	0.004
1.700	0.021	0.004
1.710	0.021	0.004
1.720	0.021	0.004
1.730	0.022	0.003
1.740	0.022	0.003
1.750	0.022	0.003
1.760	0.022	0.003
1.770	0.023	0.002
1.780	0.023	0.002
1.790	0.023	0.002
1.800	0.023	0.002
1.810	0.024	0.001
1.820	0.024	0.001
1.830	0.024	0.001
1.840	0.024	0.001
1.850	0.024	0.001
1.860	0.024	0.001
1.870	0.024	0.001
1.880	0.024	0.001
1.890	0.024	0.002
1.900	0.024	0.002
1.910	0.024	0.002
1.920	0.024	0.002
1.930	0.024	0.003
1.940	0.024	0.003
1.950	0.024	0.003
1.960	0.024	0.003
1.970	0.024	0.004
1.980	0.024	0.004
1.990	0.024	0.004
2.000	0.024	0.004
2.010	0.024	0.005
2.020	0.024	0.005
2.030	0.024	0.005
2.040	0.024	0.005
2.050	0.025	0.006
2.060	0.025	0.006
2.070	0.025	0.006
2.080	0.025	0.006
2.090	0.026	0.005
2.100	0.026	0.005
2.110	0.026	0.005
2.120	0.026	0.005
2.130	0.027	0.004
2.140	0.027	0.004
2.150	0.027	0.004
2.160	0.027	0.004
2.170	0.028	0.003
2.180	0.028	0.003
2.190	0.028	0.003
2.200	0.028	0.003
2.210	0.029	0.002
2.220	0.029	0.002
2.230	0.029	0.002
2.240	0.029	0.002
2.250	0.030	0.001
2.260	0.030	0.001
2.270	0.030	0.001
2.280	0.030	0.001
2.290	0.030	0.001
2.300	0.030	0.001
2.310	0.030	0.001
2.320	0.030	0.001
